<?xml version="1.0" encoding="utf-8"?>
<!-- Generator: Adobe Illustrator 23.1.0, SVG Export Plug-In . SVG Version: 6.00 Build 0)  -->
<svg version="1.1" id="Layer_1" xmlns="http://www.w3.org/2000/svg" xmlns:xlink="http://www.w3.org/1999/xlink" x="0px" y="0px"
	 viewBox="0 0 20 20" style="enable-background:new 0 0 20 20;" xml:space="preserve">
<style type="text/css">
	.st0{fill:#EBEBEB;stroke:#328888;stroke-width:0.5;stroke-miterlimit:10;}
	.st1{fill:#328888;stroke:#328888;stroke-width:0.5;stroke-miterlimit:10;}
</style>
<path class="st0" d="M17.76,19.75H2.29c-1.1,0-2-0.9-2-2V2.28c0-1.1,0.9-2,2-2h15.46c1.1,0,2,0.9,2,2v15.46
	C19.76,18.85,18.86,19.75,17.76,19.75z"/>
<path class="st1" d="M13.95,6.15H6.1c-0.34,0-0.63-0.28-0.63-0.63v0c0-0.34,0.28-0.63,0.63-0.63h7.84c0.34,0,0.63,0.28,0.63,0.63v0
	C14.57,5.87,14.29,6.15,13.95,6.15z"/>
<path class="st1" d="M13.95,10.15H6.1c-0.34,0-0.63-0.28-0.63-0.63v0c0-0.34,0.28-0.63,0.63-0.63h7.84c0.34,0,0.63,0.28,0.63,0.63v0
	C14.57,9.87,14.29,10.15,13.95,10.15z"/>
<path class="st1" d="M13.95,14.15H6.1c-0.34,0-0.63-0.28-0.63-0.63v0c0-0.34,0.28-0.63,0.63-0.63h7.84c0.34,0,0.63,0.28,0.63,0.63v0
	C14.57,13.87,14.29,14.15,13.95,14.15z"/>
</svg>
